<svg width="29" height="29" viewBox="0 0 29 29" fill="none" xmlns="http://www.w3.org/2000/svg">
<path id="Vector" d="M14.5 29C18.3456 29 22.0338 27.4723 24.753 24.753C27.4723 22.0338 29 18.3456 29 14.5C29 10.6544 27.4723 6.96623 24.753 4.24695C22.0338 1.52767 18.3456 0 14.5 0C10.6544 0 6.96623 1.52767 4.24695 4.24695C1.52767 6.96623 0 10.6544 0 14.5C0 18.3456 1.52767 22.0338 4.24695 24.753C6.96623 27.4723 10.6544 29 14.5 29ZM11.2941 17.7059C13.0613 19.473 15.933 19.473 17.7002 17.7059C18.2326 17.1734 19.0936 17.1734 19.6203 17.7059C20.1471 18.2383 20.1527 19.0992 19.6203 19.626C16.7883 22.458 12.2004 22.458 9.36836 19.626C6.53633 16.7939 6.53633 12.2061 9.36836 9.37402C12.2004 6.54199 16.7883 6.54199 19.6203 9.37402C20.1527 9.90645 20.1527 10.7674 19.6203 11.2941C19.0879 11.8209 18.227 11.8266 17.7002 11.2941C15.933 9.52695 13.0613 9.52695 11.2941 11.2941C9.52695 13.0613 9.52695 15.933 11.2941 17.7002V17.7059Z" fill="black"/>
</svg>
