<svg width="40" height="40" viewBox="0 0 40 40" fill="none" xmlns="http://www.w3.org/2000/svg">
<g id="Group 2">
<circle id="Ellipse 3" cx="20" cy="20" r="20" fill="#E98880"/>
<path id="Vector" d="M19.5026 14.6031C16.2392 14.6031 13.607 17.2359 13.607 20.5C13.607 23.7641 16.2392 26.3969 19.5026 26.3969C22.7659 26.3969 25.3982 23.7641 25.3982 20.5C25.3982 17.2359 22.7659 14.6031 19.5026 14.6031ZM19.5026 24.3338C17.3937 24.3338 15.6697 22.6145 15.6697 20.5C15.6697 18.3855 17.3886 16.6662 19.5026 16.6662C21.6166 16.6662 23.3355 18.3855 23.3355 20.5C23.3355 22.6145 21.6114 24.3338 19.5026 24.3338ZM27.0144 14.3619C27.0144 15.1266 26.3987 15.7373 25.6393 15.7373C24.8748 15.7373 24.2642 15.1214 24.2642 14.3619C24.2642 13.6023 24.8799 12.9864 25.6393 12.9864C26.3987 12.9864 27.0144 13.6023 27.0144 14.3619ZM30.9192 15.7578C30.832 13.9154 30.4112 12.2833 29.0617 10.9387C27.7174 9.59405 26.0857 9.17321 24.2437 9.08083C22.3452 8.97306 16.6548 8.97306 14.7563 9.08083C12.9194 9.16808 11.2877 9.58892 9.93826 10.9336C8.58879 12.2782 8.17317 13.9102 8.08081 15.7527C7.97306 17.6516 7.97306 23.3432 8.08081 25.2422C8.16804 27.0846 8.58879 28.7167 9.93826 30.0613C11.2877 31.4059 12.9143 31.8268 14.7563 31.9192C16.6548 32.0269 22.3452 32.0269 24.2437 31.9192C26.0857 31.8319 27.7174 31.4111 29.0617 30.0613C30.4061 28.7167 30.8268 27.0846 30.9192 25.2422C31.0269 23.3432 31.0269 17.6568 30.9192 15.7578ZM28.4665 27.2796C28.0663 28.2856 27.2915 29.0605 26.2807 29.466C24.767 30.0664 21.1753 29.9279 19.5026 29.9279C17.8298 29.9279 14.233 30.0613 12.7244 29.466C11.7187 29.0657 10.9439 28.2907 10.5386 27.2796C9.93826 25.7656 10.0768 22.1731 10.0768 20.5C10.0768 18.8269 9.94339 15.2292 10.5386 13.7204C10.9388 12.7144 11.7136 11.9395 12.7244 11.534C14.2381 10.9336 17.8298 11.0721 19.5026 11.0721C21.1753 11.0721 24.7722 10.9387 26.2807 11.534C27.2864 11.9343 28.0612 12.7093 28.4665 13.7204C29.0669 15.2344 28.9283 18.8269 28.9283 20.5C28.9283 22.1731 29.0669 25.7708 28.4665 27.2796Z" fill="white"/>
</g>
</svg>
