<svg width="40" height="40" viewBox="0 0 40 40" fill="none" xmlns="http://www.w3.org/2000/svg">
<g id="Group 4">
<circle id="Ellipse 1" cx="20" cy="20" r="20" fill="#E98880"/>
<path id="Vector" d="M14.2529 30H10.3138V17.3147H14.2529V30ZM12.2813 15.5843C11.0217 15.5843 10 14.5409 10 13.2813C10 12.6763 10.2403 12.096 10.6682 11.6682C11.096 11.2404 11.6762 11 12.2813 11C12.8863 11 13.4666 11.2404 13.8944 11.6682C14.3222 12.096 14.5625 12.6763 14.5625 13.2813C14.5625 14.5409 13.5404 15.5843 12.2813 15.5843ZM28.9958 30H25.0651V23.8249C25.0651 22.3532 25.0354 20.4659 23.0171 20.4659C20.9691 20.4659 20.6553 22.0648 20.6553 23.7188V30H16.7204V17.3147H20.4983V19.0451H20.5535C21.0794 18.0484 22.364 16.9966 24.2805 16.9966C28.2671 16.9966 29 19.6219 29 23.0318V30H28.9958Z" fill="white"/>
</g>
</svg>
